<svg width="18" height="18" viewBox="0 0 25 25" fill="none" xmlns="http://www.w3.org/2000/svg">
<g clip-path="url(#clip0_216_12)">
<path d="M13.6181 12.5L16.9931 9.125C17.1068 8.99215 17.1663 8.82127 17.1595 8.64649C17.1528 8.47172 17.0803 8.30592 16.9566 8.18225C16.833 8.05857 16.6672 7.98612 16.4924 7.97937C16.3176 7.97262 16.1467 8.03206 16.0139 8.14583L12.6389 11.4861L9.24305 8.09028C9.1102 7.97651 8.93932 7.91706 8.76454 7.92381C8.58977 7.93056 8.42398 8.00302 8.3003 8.12669C8.17662 8.25037 8.10417 8.41616 8.09742 8.59094C8.09067 8.76571 8.15012 8.9366 8.26389 9.06944L11.6528 12.5L8.33333 15.7778C8.26063 15.84 8.20159 15.9166 8.15991 16.0028C8.11823 16.089 8.0948 16.1828 8.09111 16.2784C8.08741 16.3741 8.10353 16.4694 8.13844 16.5586C8.17336 16.6477 8.22631 16.7286 8.29399 16.7963C8.36167 16.864 8.4426 16.9169 8.53172 16.9518C8.62083 16.9867 8.7162 17.0029 8.81184 16.9992C8.90748 16.9955 9.00132 16.972 9.08748 16.9304C9.17363 16.8887 9.25024 16.8296 9.3125 16.7569L12.625 13.4444L15.9167 16.7361C16.0495 16.8499 16.2204 16.9093 16.3952 16.9026C16.5699 16.8958 16.7357 16.8234 16.8594 16.6997C16.9831 16.576 17.0555 16.4102 17.0623 16.2355C17.069 16.0607 17.0096 15.8898 16.8958 15.7569L13.6181 12.5Z" fill="#8B8B8D"/>
<path d="M12.5 23.6111C10.3024 23.6111 8.15421 22.9595 6.327 21.7386C4.49979 20.5176 3.07565 18.7823 2.23467 16.752C1.3937 14.7217 1.17366 12.4877 1.60239 10.3323C2.03111 8.17699 3.08934 6.19718 4.64326 4.64326C6.19718 3.08934 8.17699 2.03111 10.3323 1.60239C12.4877 1.17366 14.7217 1.3937 16.752 2.23467C18.7823 3.07565 20.5176 4.49979 21.7386 6.327C22.9595 8.15421 23.6111 10.3024 23.6111 12.5C23.6111 15.4469 22.4405 18.273 20.3567 20.3567C18.273 22.4405 15.4469 23.6111 12.5 23.6111ZM12.5 2.77778C10.5771 2.77778 8.69744 3.34798 7.09862 4.41627C5.49981 5.48456 4.25369 7.00296 3.51784 8.77947C2.78199 10.556 2.58946 12.5108 2.96459 14.3967C3.33972 16.2826 4.26567 18.015 5.62535 19.3746C6.98503 20.7343 8.71736 21.6603 10.6033 22.0354C12.4892 22.4105 14.444 22.218 16.2205 21.4822C17.997 20.7463 19.5154 19.5002 20.5837 17.9014C21.652 16.3026 22.2222 14.4229 22.2222 12.5C22.2222 9.92151 21.1979 7.44862 19.3746 5.62535C17.5514 3.80208 15.0785 2.77778 12.5 2.77778Z" fill="#8B8B8D"/>
</g>
<defs>
<clipPath id="clip0_216_12">
<rect width="25" height="25" fill="white"/>
</clipPath>
</defs>
</svg>
